<svg width="19" height="38" viewBox="0 0 19 38" fill="none" xmlns="http://www.w3.org/2000/svg">
<path d="M12.76 12.04C13.56 11.9067 14.1867 11.28 14.64 10.16L14.52 17.32C14.0667 15.8533 13.2667 15.12 12.12 15.12L7.48 15.16V22.2L5.96 19.88L5.8 19.56L6.04 30L4.76 28L3.88 37.6L1 21.08L2.44 22.04L0.92 12.12L2.92 13L1.24 0.96H1.28L1.2 0.519998C3.94667 0.786664 5.96 0.919998 7.24 0.919998C10.52 0.919998 13.84 0.719998 17.2 0.319998L18.68 6.68C18.28 6.01333 17.6933 5.44 16.92 4.96C16.1733 4.48 15.4133 4.25333 14.64 4.28L7.36 4.44L7.48 12.08L12.76 12.04Z" fill="url(#paint0_linear_55_5)"/>
<path d="M12.76 12.04L12.7623 12.34L12.786 12.3398L12.8093 12.3359L12.76 12.04ZM14.64 10.16L14.94 10.165L14.3619 10.0474L14.64 10.16ZM14.52 17.32L14.2334 17.4086L14.82 17.325L14.52 17.32ZM12.12 15.12L12.12 14.82L12.1174 14.82L12.12 15.12ZM7.48 15.16L7.47741 14.86L7.18 14.8626V15.16H7.48ZM7.48 22.2L7.22906 22.3644L7.78 23.2053V22.2H7.48ZM5.96 19.88L5.69167 20.0142L5.69949 20.0298L5.70906 20.0444L5.96 19.88ZM5.8 19.56L6.06833 19.4258L5.50008 19.5669L5.8 19.56ZM6.04 30L5.78732 30.1617L6.36453 31.0636L6.33992 29.9931L6.04 30ZM4.76 28L5.01268 27.8383L4.54111 27.1015L4.46125 27.9726L4.76 28ZM3.88 37.6L3.58446 37.6515L4.17875 37.6274L3.88 37.6ZM1 21.08L1.16641 20.8304L0.584305 20.4423L0.704458 21.1315L1 21.08ZM2.44 22.04L2.27359 22.2896L2.83956 22.6669L2.73654 21.9946L2.44 22.04ZM0.92 12.12L1.04082 11.8454L0.540706 11.6254L0.623461 12.1654L0.92 12.12ZM2.92 13L2.79918 13.2746L3.29145 13.4912L3.21712 12.9585L2.92 13ZM1.24 0.96V0.66H0.895233L0.942879 1.00146L1.24 0.96ZM1.28 0.96V1.26H1.63946L1.57516 0.906334L1.28 0.96ZM1.2 0.519998L1.22899 0.221402L0.833816 0.183036L0.904839 0.573664L1.2 0.519998ZM17.2 0.319998L17.4922 0.252004L17.4313 -0.00965623L17.1645 0.0221018L17.2 0.319998ZM18.68 6.68L18.4228 6.83435L18.9722 6.61201L18.68 6.68ZM16.92 4.96L16.7578 5.21238L16.7618 5.21489L16.92 4.96ZM14.64 4.28L14.6466 4.57995L14.6503 4.57982L14.64 4.28ZM7.36 4.44L7.35341 4.14007L7.05536 4.14662L7.06004 4.44471L7.36 4.44ZM7.48 12.08L7.18004 12.0847L7.18471 12.3822L7.48227 12.38L7.48 12.08ZM12.8093 12.3359C13.7569 12.178 14.4463 11.4382 14.9181 10.2726L14.3619 10.0474C13.9271 11.1218 13.3631 11.6354 12.7107 11.7441L12.8093 12.3359ZM14.34 10.155L14.22 17.315L14.82 17.325L14.94 10.165L14.34 10.155ZM14.8066 17.2314C14.5704 16.4672 14.2349 15.8634 13.7827 15.4489C13.324 15.0284 12.7637 14.82 12.12 14.82V15.42C12.6229 15.42 13.036 15.5783 13.3773 15.8911C13.7251 16.21 14.0163 16.7061 14.2334 17.4086L14.8066 17.2314ZM12.1174 14.82L7.47741 14.86L7.48259 15.46L12.1226 15.42L12.1174 14.82ZM7.18 15.16V22.2H7.78V15.16H7.18ZM7.73094 22.0356L6.21094 19.7156L5.70906 20.0444L7.22906 22.3644L7.73094 22.0356ZM6.22833 19.7458L6.06833 19.4258L5.53167 19.6942L5.69167 20.0142L6.22833 19.7458ZM5.50008 19.5669L5.74008 30.0069L6.33992 29.9931L6.09992 19.5531L5.50008 19.5669ZM6.29268 29.8383L5.01268 27.8383L4.50732 28.1617L5.78732 30.1617L6.29268 29.8383ZM4.46125 27.9726L3.58125 37.5726L4.17875 37.6274L5.05875 28.0274L4.46125 27.9726ZM4.17554 37.5485L1.29554 21.0285L0.704458 21.1315L3.58446 37.6515L4.17554 37.5485ZM0.83359 21.3296L2.27359 22.2896L2.60641 21.7904L1.16641 20.8304L0.83359 21.3296ZM2.73654 21.9946L1.21654 12.0746L0.623461 12.1654L2.14346 22.0854L2.73654 21.9946ZM0.799178 12.3946L2.79918 13.2746L3.04082 12.7254L1.04082 11.8454L0.799178 12.3946ZM3.21712 12.9585L1.53712 0.918541L0.942879 1.00146L2.62288 13.0415L3.21712 12.9585ZM1.24 1.26H1.28V0.66H1.24V1.26ZM1.57516 0.906334L1.49516 0.466333L0.904839 0.573664L0.984839 1.01367L1.57516 0.906334ZM1.17101 0.818594C3.91895 1.08538 5.94452 1.22 7.24 1.22V0.619998C5.97548 0.619998 3.97439 0.487945 1.22899 0.221402L1.17101 0.818594ZM7.24 1.22C10.5322 1.22 13.8641 1.01925 17.2355 0.617895L17.1645 0.0221018C13.8159 0.420744 10.5078 0.619998 7.24 0.619998V1.22ZM16.9078 0.387993L18.3878 6.74799L18.9722 6.61201L17.4922 0.252004L16.9078 0.387993ZM18.9372 6.52565C18.5088 5.81162 17.8852 5.20598 17.0782 4.70511L16.7618 5.21489C17.5015 5.67402 18.0512 6.21505 18.4228 6.83435L18.9372 6.52565ZM17.0822 4.70764C16.292 4.19965 15.4727 3.95111 14.6297 3.98018L14.6503 4.57982C15.354 4.55556 16.0547 4.76035 16.7578 5.21235L17.0822 4.70764ZM14.6334 3.98007L7.35341 4.14007L7.36659 4.73993L14.6466 4.57993L14.6334 3.98007ZM7.06004 4.44471L7.18004 12.0847L7.77996 12.0753L7.65996 4.43529L7.06004 4.44471ZM7.48227 12.38L12.7623 12.34L12.7577 11.74L7.47773 11.78L7.48227 12.38Z" fill="black"/>
<defs>
<linearGradient id="paint0_linear_55_5" x1="8" y1="-12" x2="8" y2="48" gradientUnits="userSpaceOnUse">
<stop stop-color="#FC5B00"/>
<stop offset="1" stop-color="#C9591A"/>
</linearGradient>
</defs>
</svg>
