<svg width="167" height="37" viewBox="0 0 167 37" fill="none" xmlns="http://www.w3.org/2000/svg">
<path d="M21.7266 21.8672V16.5234H7.10156V7.24219H23.5547V1.875H0.492188V36H7.10156V21.8672H21.7266Z" fill="black"/>
<path d="M44.9766 36H51.5859V35.6016C51.2578 34.9609 51.0078 34.1953 50.8359 33.3047C50.6641 32.4141 50.5781 31.2891 50.5781 29.9297V19.0547C50.5781 17.5859 50.3047 16.2969 49.7578 15.1875C49.2109 14.0625 48.4531 13.1328 47.4844 12.3984C46.5156 11.6641 45.3672 11.1094 44.0391 10.7344C42.7266 10.3594 41.3047 10.1719 39.7734 10.1719C38.0703 10.1719 36.5547 10.3906 35.2266 10.8281C33.9141 11.25 32.8047 11.8281 31.8984 12.5625C30.9766 13.2969 30.2734 14.1484 29.7891 15.1172C29.3203 16.0859 29.0859 17.1094 29.0859 18.1875H35.6016C35.6016 17.7344 35.6641 17.3203 35.7891 16.9453C35.9297 16.5703 36.1406 16.25 36.4219 15.9844C36.7344 15.6875 37.1406 15.4609 37.6406 15.3047C38.1406 15.1328 38.7344 15.0469 39.4219 15.0469C40.2031 15.0469 40.8828 15.1484 41.4609 15.3516C42.0547 15.5391 42.5469 15.8125 42.9375 16.1719C43.3125 16.5156 43.5938 16.9297 43.7812 17.4141C43.9688 17.8828 44.0625 18.4141 44.0625 19.0078V20.5078H40.4297C38.5547 20.5078 36.8906 20.6797 35.4375 21.0234C34 21.3516 32.7891 21.8359 31.8047 22.4766C30.7109 23.1797 29.8906 24.0781 29.3438 25.1719C28.7969 26.25 28.5234 27.4922 28.5234 28.8984C28.5234 29.9922 28.7422 31.0078 29.1797 31.9453C29.6172 32.8672 30.2266 33.6641 31.0078 34.3359C31.7891 35.0078 32.7188 35.5312 33.7969 35.9062C34.8906 36.2812 36.0859 36.4688 37.3828 36.4688C38.1797 36.4688 38.9219 36.3906 39.6094 36.2344C40.2969 36.0938 40.9297 35.8906 41.5078 35.625C42.0703 35.375 42.5859 35.0781 43.0547 34.7344C43.5234 34.3906 43.9375 34.0234 44.2969 33.6328C44.375 34.0859 44.4688 34.5156 44.5781 34.9219C44.6875 35.3281 44.8203 35.6875 44.9766 36ZM38.7656 31.4297C38.1562 31.4297 37.6172 31.3594 37.1484 31.2188C36.6953 31.0625 36.3125 30.8594 36 30.6094C35.6875 30.3438 35.4453 30.0234 35.2734 29.6484C35.1172 29.2578 35.0391 28.8359 35.0391 28.3828C35.0391 27.8047 35.1484 27.2734 35.3672 26.7891C35.5859 26.2891 35.9219 25.8594 36.375 25.5C36.8281 25.1562 37.4141 24.8906 38.1328 24.7031C38.8516 24.5 39.7188 24.3984 40.7344 24.3984H44.0625V28.7578C43.875 29.0859 43.6172 29.4141 43.2891 29.7422C42.9609 30.0547 42.5703 30.3359 42.1172 30.5859C41.6641 30.8359 41.1562 31.0391 40.5938 31.1953C40.0312 31.3516 39.4219 31.4297 38.7656 31.4297Z" fill="black"/>
<path d="M76.1719 10.1719C74.4688 10.1719 72.8984 10.5859 71.4609 11.4141C70.0234 12.2266 68.7891 13.3516 67.7578 14.7891L67.7109 14.2266L67.4531 10.6406H61.3828V36H67.8984V20.7656C68.1953 20.0469 68.5703 19.4219 69.0234 18.8906C69.4766 18.3594 70.0234 17.9219 70.6641 17.5781C71.1953 17.2812 71.7969 17.0625 72.4688 16.9219C73.1562 16.7656 73.9219 16.6875 74.7656 16.6875C75.5781 16.6875 76.4297 16.7422 77.3203 16.8516C78.2266 16.9453 79.1094 17.0938 79.9688 17.2969L80.9297 10.8047C80.4141 10.6484 79.7344 10.5078 78.8906 10.3828C78.0625 10.2422 77.1562 10.1719 76.1719 10.1719Z" fill="black"/>
<path d="M102.633 36H109.242V35.6016C108.914 34.9609 108.664 34.1953 108.492 33.3047C108.32 32.4141 108.234 31.2891 108.234 29.9297V19.0547C108.234 17.5859 107.961 16.2969 107.414 15.1875C106.867 14.0625 106.109 13.1328 105.141 12.3984C104.172 11.6641 103.023 11.1094 101.695 10.7344C100.383 10.3594 98.9609 10.1719 97.4297 10.1719C95.7266 10.1719 94.2109 10.3906 92.8828 10.8281C91.5703 11.25 90.4609 11.8281 89.5547 12.5625C88.6328 13.2969 87.9297 14.1484 87.4453 15.1172C86.9766 16.0859 86.7422 17.1094 86.7422 18.1875H93.2578C93.2578 17.7344 93.3203 17.3203 93.4453 16.9453C93.5859 16.5703 93.7969 16.25 94.0781 15.9844C94.3906 15.6875 94.7969 15.4609 95.2969 15.3047C95.7969 15.1328 96.3906 15.0469 97.0781 15.0469C97.8594 15.0469 98.5391 15.1484 99.1172 15.3516C99.7109 15.5391 100.203 15.8125 100.594 16.1719C100.969 16.5156 101.25 16.9297 101.438 17.4141C101.625 17.8828 101.719 18.4141 101.719 19.0078V20.5078H98.0859C96.2109 20.5078 94.5469 20.6797 93.0938 21.0234C91.6562 21.3516 90.4453 21.8359 89.4609 22.4766C88.3672 23.1797 87.5469 24.0781 87 25.1719C86.4531 26.25 86.1797 27.4922 86.1797 28.8984C86.1797 29.9922 86.3984 31.0078 86.8359 31.9453C87.2734 32.8672 87.8828 33.6641 88.6641 34.3359C89.4453 35.0078 90.375 35.5312 91.4531 35.9062C92.5469 36.2812 93.7422 36.4688 95.0391 36.4688C95.8359 36.4688 96.5781 36.3906 97.2656 36.2344C97.9531 36.0938 98.5859 35.8906 99.1641 35.625C99.7266 35.375 100.242 35.0781 100.711 34.7344C101.18 34.3906 101.594 34.0234 101.953 33.6328C102.031 34.0859 102.125 34.5156 102.234 34.9219C102.344 35.3281 102.477 35.6875 102.633 36ZM96.4219 31.4297C95.8125 31.4297 95.2734 31.3594 94.8047 31.2188C94.3516 31.0625 93.9688 30.8594 93.6562 30.6094C93.3438 30.3438 93.1016 30.0234 92.9297 29.6484C92.7734 29.2578 92.6953 28.8359 92.6953 28.3828C92.6953 27.8047 92.8047 27.2734 93.0234 26.7891C93.2422 26.2891 93.5781 25.8594 94.0312 25.5C94.4844 25.1562 95.0703 24.8906 95.7891 24.7031C96.5078 24.5 97.375 24.3984 98.3906 24.3984H101.719V28.7578C101.531 29.0859 101.273 29.4141 100.945 29.7422C100.617 30.0547 100.227 30.3359 99.7734 30.5859C99.3203 30.8359 98.8125 31.0391 98.25 31.1953C97.6875 31.3516 97.0781 31.4297 96.4219 31.4297Z" fill="black"/>
<path d="M116.977 0V5.32031H124.57V30.7031H116.977V36H138.422V30.7031H131.156V0H116.977Z" fill="black"/>
<path d="M146.18 10.6406V15.9609H153.398V30.7031H146.18V36H166.852V30.7031H159.984V10.6406H146.18ZM152.93 4.14844C152.93 4.64844 153.016 5.11719 153.188 5.55469C153.375 5.97656 153.633 6.33594 153.961 6.63281C154.289 6.94531 154.68 7.1875 155.133 7.35938C155.602 7.53125 156.117 7.61719 156.68 7.61719C157.836 7.61719 158.75 7.29688 159.422 6.65625C160.109 6 160.453 5.16406 160.453 4.14844C160.453 3.13281 160.109 2.30469 159.422 1.66406C158.75 1.00781 157.836 0.679688 156.68 0.679688C156.117 0.679688 155.602 0.765625 155.133 0.9375C154.68 1.10938 154.289 1.34375 153.961 1.64062C153.633 1.95312 153.375 2.32812 153.188 2.76562C153.016 3.1875 152.93 3.64844 152.93 4.14844Z" fill="black"/>
</svg>
